<svg id="lrlogo" width="197" height="40" viewBox="0 0 197 40" fill="none" xmlns="http://www.w3.org/2000/svg">
                    <path d="M20.6735 3.09638e-07C15.8366 -0.000833444 11.1526 1.68212 7.43695 4.75589C3.72125 7.82966 1.20918 12.0996 0.338041 16.8223C-0.533097 21.545 0.291876 26.4214 2.66934 30.6026C5.04681 34.7838 8.8262 38.0049 13.3496 39.7053L15.0964 34.875C11.7189 33.5826 8.9035 31.1579 7.13817 28.0211C5.37284 24.8843 4.7689 21.2332 5.43105 17.7008C6.0932 14.1684 7.9797 10.9773 10.7635 8.68074C13.5473 6.38418 17.0529 5.12692 20.6727 5.12692C24.2924 5.12692 27.798 6.38418 30.5818 8.68074C33.3656 10.9773 35.2521 14.1684 35.9143 17.7008C36.5764 21.2332 35.9725 24.8843 34.2072 28.0211C32.4418 31.1579 29.6264 33.5826 26.2489 34.875L27.9958 39.7053C32.519 38.005 36.2983 34.784 38.6758 30.6029C41.0533 26.4219 41.8784 21.5457 41.0074 16.8231C40.1365 12.1005 37.6247 7.83057 33.9093 4.75667C30.1939 1.68278 25.5102 -0.000451944 20.6735 3.09638e-07Z" fill="#008ECF"></path>
                    <path d="M16.843 30.0444L18.5915 25.2093C17.5064 24.7351 16.6186 23.9049 16.0771 22.858C15.5355 21.8112 15.3732 20.6113 15.6173 19.4596C15.8613 18.308 16.497 17.2748 17.4176 16.5332C18.3381 15.7917 19.4876 15.3869 20.6732 15.3869C21.8588 15.3869 23.0083 15.7917 23.9289 16.5332C24.8495 17.2748 25.4851 18.308 25.7292 19.4596C25.9733 20.6113 25.8109 21.8112 25.2694 22.858C24.7278 23.9049 23.84 24.7351 22.755 25.2093L24.5035 30.0444C26.7373 29.1605 28.591 27.5315 29.7458 25.4377C30.9006 23.3439 31.2842 20.9161 30.8308 18.5718C30.3774 16.2276 29.1153 14.1134 27.2615 12.593C25.4076 11.0725 23.078 10.2407 20.6732 10.2407C18.2684 10.2407 15.9388 11.0725 14.085 12.593C12.2311 14.1134 10.969 16.2276 10.5156 18.5718C10.0622 20.9161 10.4459 23.3439 11.6007 25.4377C12.7555 27.5315 14.6092 29.1605 16.843 30.0444Z" fill="#09263C"></path>
                    <path d="M121.197 15.4071C121.455 15.4071 121.752 15.4218 122.087 15.4544C122.422 15.4869 122.744 15.5293 123.072 15.5831C123.4 15.6369 123.693 15.6907 123.964 15.7461C124.165 15.7829 124.365 15.8308 124.561 15.8895L124.044 18.497C123.657 18.3715 123.262 18.2692 122.862 18.1906C122.163 18.0601 121.453 18.0012 120.742 18.0146C120.182 18.0145 119.623 18.0735 119.074 18.1906C118.524 18.3095 118.162 18.3894 117.989 18.4318V32.4763H114.981V16.4664C115.849 16.1671 116.736 15.9259 117.636 15.7444C118.808 15.5083 120.002 15.3952 121.197 15.4071Z" fill="#09263C"></path>
                    <path d="M131.754 15.3414C132.958 15.3414 133.977 15.4968 134.812 15.8075C135.581 16.0766 136.27 16.5294 136.82 17.1259C137.335 17.708 137.706 18.401 137.904 19.15C138.129 19.9943 138.239 20.8646 138.232 21.7379V32.181C137.974 32.225 137.612 32.2837 137.149 32.3586C136.686 32.4336 136.164 32.502 135.577 32.5672C134.991 32.6324 134.364 32.6895 133.685 32.7432C133.005 32.797 132.33 32.8247 131.66 32.8247C130.776 32.8329 129.894 32.7355 129.033 32.5346C128.289 32.3659 127.586 32.0548 126.961 31.6187C126.37 31.1939 125.901 30.6239 125.599 29.9646C125.254 29.1853 125.085 28.3402 125.106 27.4891C125.084 26.6612 125.279 25.8416 125.673 25.1114C126.042 24.4564 126.571 23.9038 127.211 23.5045C127.908 23.0769 128.675 22.7726 129.477 22.6049C130.37 22.4089 131.282 22.3116 132.197 22.3149C132.51 22.3155 132.823 22.3318 133.135 22.3637C133.463 22.3963 133.77 22.4393 134.057 22.4925C134.349 22.5463 134.602 22.5935 134.819 22.6375C135.036 22.6815 135.185 22.7125 135.272 22.7337V21.8977C135.272 21.4042 135.217 20.9123 135.108 20.4309C135.008 19.9661 134.809 19.5278 134.525 19.1451C134.224 18.7543 133.829 18.445 133.376 18.2455C132.777 17.999 132.131 17.8839 131.483 17.9082C130.611 17.9005 129.741 17.972 128.882 18.1217C128.316 18.2122 127.76 18.3552 127.221 18.5486L126.865 16.0748C127.492 15.8398 128.143 15.6726 128.807 15.5761C129.78 15.4116 130.766 15.3331 131.754 15.3414ZM132.012 30.3183C132.724 30.3183 133.356 30.302 133.906 30.2694C134.369 30.2482 134.829 30.1894 135.282 30.0934V25.1114C134.946 24.9719 134.592 24.8797 134.23 24.8376C133.645 24.756 133.055 24.7184 132.465 24.7252C131.983 24.7271 131.502 24.7597 131.025 24.8229C130.542 24.8794 130.071 25.0149 129.633 25.2239C129.222 25.4194 128.862 25.7054 128.58 26.0599C128.284 26.4642 128.135 26.957 128.16 27.4565C128.16 28.5289 128.505 29.2736 129.196 29.6908C129.887 30.108 130.825 30.3172 132.012 30.3183Z" fill="#09263C"></path>
                    <path d="M152.387 7.20117H155.398V32.471C154.707 32.6633 150.422 32.8556 149.02 32.8556C147.826 32.8734 146.64 32.6666 145.523 32.2461C144.524 31.8625 143.618 31.2707 142.868 30.5105C142.112 29.7247 141.533 28.7881 141.169 27.7629C140.754 26.5918 140.551 25.357 140.57 24.1157C140.557 22.9185 140.727 21.7262 141.072 20.5792C141.375 19.57 141.877 18.6309 142.55 17.8169C143.196 17.0461 144.009 16.4304 144.929 16.0161C145.943 15.5723 147.043 15.3532 148.152 15.374C149.023 15.3597 149.89 15.4903 150.718 15.7603C151.3 15.9434 151.859 16.191 152.386 16.4985L152.387 7.20117ZM152.387 19.295C151.904 18.9305 151.37 18.6378 150.801 18.4264C150.08 18.1431 149.31 18.0014 148.534 18.0092C147.768 17.9887 147.008 18.1484 146.316 18.4753C145.715 18.7743 145.198 19.216 144.811 19.7611C144.405 20.3484 144.119 21.0089 143.97 21.7053C143.792 22.4965 143.705 23.3051 143.711 24.1157C143.711 26.0648 144.196 27.5695 145.167 28.6299C146.139 29.6908 147.457 30.0591 149.076 30.0591C149.897 30.0591 152.085 29.9532 152.387 29.8684V19.295Z" fill="#09263C"></path>
                    <path d="M185.305 30.3185C186.535 30.3185 187.447 30.1556 188.04 29.8296C188.633 29.5037 188.93 28.9892 188.93 28.2863C188.94 27.9479 188.866 27.6123 188.713 27.3094C188.561 27.0066 188.335 26.7459 188.057 26.5507C187.473 26.1237 186.513 25.6418 185.175 25.1051C184.529 24.8476 183.908 24.5853 183.314 24.318C182.759 24.0749 182.241 23.7556 181.775 23.3695C181.343 23.005 180.991 22.557 180.739 22.0527C180.464 21.4585 180.332 20.8093 180.352 20.1558C180.352 18.6771 180.899 17.5042 181.994 16.6373C183.088 15.7703 184.588 15.3357 186.494 15.3335C186.97 15.3341 187.446 15.3608 187.919 15.4134C188.393 15.4677 188.835 15.5323 189.247 15.6073C189.656 15.6823 190.019 15.7703 190.331 15.8485C190.642 15.9267 190.887 16.0114 191.059 16.0734L190.509 18.6434C190.022 18.414 189.512 18.2365 188.988 18.1138C188.176 17.9216 187.343 17.8324 186.508 17.8481C185.745 17.8303 184.989 18.0017 184.309 18.3468C184.016 18.4868 183.77 18.709 183.604 18.986C183.437 19.2629 183.355 19.5824 183.369 19.9048C183.362 20.2383 183.434 20.5689 183.58 20.8696C183.736 21.1665 183.957 21.4249 184.226 21.6257C184.562 21.876 184.926 22.0861 185.312 22.2515C185.743 22.4438 186.261 22.6476 186.865 22.8627C187.664 23.1625 188.375 23.457 188.999 23.746C189.579 24.0057 190.119 24.3465 190.601 24.758C191.042 25.1429 191.39 25.6206 191.621 26.1563C191.876 26.7946 191.997 27.4777 191.977 28.1641C191.977 29.7068 191.4 30.8748 190.245 31.6679C189.09 32.461 187.445 32.857 185.308 32.856C183.819 32.856 182.653 32.7332 181.811 32.4876C181.23 32.3284 180.658 32.1402 180.096 31.9238L180.646 29.3537C180.99 29.483 181.541 29.6759 182.297 29.9323C183.054 30.1887 184.056 30.3174 185.305 30.3185Z" fill="#09263C"></path>
                    <path d="M177.654 32.4717L170.953 32.8253C169.812 32.8947 168.67 32.7017 167.616 32.2614C166.785 31.9261 166.056 31.3839 165.497 30.6872C164.948 29.9704 164.567 29.1415 164.381 28.2605C164.154 27.2373 164.044 26.1921 164.052 25.1445V15.7607H167.063V24.5008C167.051 25.3838 167.122 26.2659 167.273 27.136C167.375 27.7681 167.613 28.3711 167.969 28.9043C168.293 29.3517 168.744 29.6923 169.265 29.8821C169.805 30.0858 170.703 30.032 171.499 29.975C173.366 29.8413 173.798 29.7876 174.64 29.7273V15.7607H177.651L177.654 32.4717Z" fill="#09263C"></path>
                    <path d="M161.234 15.7588H158.223V32.4697H161.234V15.7588Z" fill="#09263C"></path>
                    <path d="M159.728 11.0569C160.8 11.0569 161.67 10.1938 161.67 9.12903C161.67 8.0643 160.8 7.20117 159.728 7.20117C158.655 7.20117 157.786 8.0643 157.786 9.12903C157.786 10.1938 158.655 11.0569 159.728 11.0569Z" fill="#09263C"></path>
                    <path d="M89.8839 15.7605C89.1714 15.5877 84.9734 15.4068 83.5697 15.4068C82.3955 15.3886 81.2293 15.6013 80.1384 16.0326C79.1656 16.4227 78.288 17.0144 77.5641 17.7683C76.8519 18.527 76.3062 19.4244 75.9618 20.4035C75.5848 21.4838 75.3987 22.6207 75.4118 23.7639C75.4118 25.1573 75.6318 27.5122 76.0192 28.521C76.3663 29.4622 76.9069 30.3213 77.6068 31.0437C78.2663 31.7118 79.0703 32.2223 79.9578 32.5365C80.8773 32.8642 81.8474 33.0297 82.8243 33.0254C83.7098 33.0426 84.5915 32.9064 85.4298 32.6229C85.9527 32.457 86.4571 32.2385 86.9353 31.971V32.6783C86.9353 34.22 86.5413 35.3445 85.7532 36.0518C84.9652 36.759 83.6759 37.1127 81.8852 37.1127C81.4748 37.1127 78.628 37.1127 77.7267 37.0931V39.6794C78.6099 39.6794 81.4058 39.6794 81.8196 39.6794C84.5394 39.6794 86.5681 39.1009 87.9056 37.9438C89.2431 36.7867 89.9124 34.9224 89.9135 32.3507L89.8839 15.7605ZM85.3116 30.1099C84.6012 30.3406 83.8574 30.454 83.11 30.4456C82.528 30.444 81.9515 30.3334 81.4108 30.1197C80.8543 29.9023 80.3556 29.5611 79.9529 29.1223C79.5056 28.628 79.1643 28.0486 78.9498 27.4193C78.7019 26.7348 78.5525 24.7515 78.5525 23.7867C78.5525 22.0484 78.9903 20.6561 79.8659 19.6098C80.7415 18.5636 81.9876 18.0388 83.6042 18.0355C84.2911 18.0251 84.978 18.0627 85.6596 18.148C86.0693 18.2029 86.4751 18.2834 86.8746 18.3892L86.8992 29.3162C86.4176 29.6658 85.8812 29.9339 85.3116 30.1099Z" fill="#008ECF"></path>
                    <path d="M73.4106 24.1156C73.4281 25.3396 73.2308 26.5572 72.8277 27.714C72.4691 28.7355 71.9112 29.6769 71.186 30.4844C70.4899 31.2546 69.6341 31.8662 68.6773 32.2771C66.6457 33.1114 64.3636 33.1114 62.3319 32.2771C61.3749 31.8668 60.519 31.2551 59.8233 30.4844C59.0969 29.6778 58.5389 28.7361 58.1816 27.714C57.7784 26.5572 57.5812 25.3396 57.5987 24.1156C57.5836 22.8961 57.7808 21.6832 58.1816 20.5303C58.5376 19.5047 59.0957 18.5596 59.8233 17.7501C60.5194 16.9823 61.3754 16.3739 62.3319 15.9672C63.3377 15.553 64.4158 15.3398 65.5046 15.3398C66.5935 15.3398 67.6716 15.553 68.6773 15.9672C69.6337 16.3743 70.4896 16.9826 71.186 17.7501C71.9124 18.5604 72.4704 19.5053 72.8277 20.5303C73.2285 21.6832 73.4256 22.8961 73.4106 24.1156ZM70.2699 24.1156C70.2699 22.2306 69.8435 20.7362 68.9909 19.6324C68.1383 18.5285 66.9781 17.9766 65.5104 17.9766C64.0426 17.9766 62.883 18.5285 62.0315 19.6324C61.18 20.7362 60.7526 22.2306 60.7493 24.1156C60.7493 26.0006 61.1756 27.495 62.0282 28.5989C62.8808 29.7027 64.0416 30.2541 65.5104 30.253C66.9781 30.253 68.1383 29.7016 68.9909 28.5989C69.8435 27.4961 70.2704 26.0017 70.2715 24.1156H70.2699Z" fill="#008ECF"></path>
                    <path d="M98.5605 15.7604L105.262 15.4068C106.403 15.3363 107.544 15.5287 108.597 15.969C109.428 16.3039 110.158 16.8462 110.716 17.5433C111.264 18.2605 111.646 19.0891 111.834 19.9698C112.06 20.9937 112.17 22.0393 112.163 23.0874V32.4709H109.147V23.7295C109.159 22.8465 109.088 21.9644 108.937 21.0943C108.835 20.4623 108.597 19.8593 108.24 19.3261C107.917 18.8784 107.466 18.5376 106.945 18.3483C106.405 18.1446 105.697 18.2017 104.899 18.2424L101.572 18.4054V32.4677H98.5605V15.7604Z" fill="#008ECF"></path>
                    <path d="M55.3182 32.7922C55.1655 32.7042 51.6094 30.5579 51.6094 27.5023V7.20117H54.6204V27.5023C54.6204 29.2949 57.1126 30.8236 57.1356 30.8431L55.3182 32.7922Z" fill="#008ECF"></path>
                    <path d="M95.7366 15.7607H92.7256V32.4717H95.7366V15.7607Z" fill="#008ECF"></path>
                    <path d="M94.2313 11.0569C95.3039 11.0569 96.1735 10.1938 96.1735 9.12903C96.1735 8.0643 95.3039 7.20117 94.2313 7.20117C93.1586 7.20117 92.2891 8.0643 92.2891 9.12903C92.2891 10.1938 93.1586 11.0569 94.2313 11.0569Z" fill="#008ECF"></path>
                    <path d="M194.745 28.8501C195.082 28.8501 195.411 28.9493 195.692 29.1352C195.972 29.3211 196.19 29.5853 196.319 29.8944C196.448 30.2035 196.482 30.5436 196.416 30.8718C196.351 31.1999 196.188 31.5014 195.95 31.7379C195.712 31.9745 195.408 32.1356 195.077 32.2009C194.747 32.2662 194.404 32.2327 194.093 32.1046C193.781 31.9766 193.515 31.7598 193.328 31.4816C193.141 31.2034 193.041 30.8763 193.041 30.5417C193.042 30.0934 193.221 29.6636 193.541 29.3465C193.86 29.0294 194.293 28.8509 194.745 28.8501ZM194.745 28.6138C194.361 28.6138 193.985 28.7268 193.666 28.9387C193.347 29.1505 193.098 29.4517 192.951 29.8039C192.804 30.1562 192.765 30.5439 192.84 30.9179C192.915 31.2919 193.1 31.6354 193.372 31.905C193.643 32.1747 193.989 32.3583 194.366 32.4327C194.743 32.5071 195.133 32.4689 195.488 32.323C195.843 32.177 196.146 31.9299 196.36 31.6129C196.573 31.2958 196.687 30.9231 196.687 30.5417C196.687 30.2885 196.637 30.0377 196.54 29.8037C196.442 29.5697 196.299 29.3571 196.119 29.178C195.938 28.9989 195.724 28.8569 195.488 28.7601C195.253 28.6633 195 28.6136 194.745 28.6138Z" fill="#09263C"></path>
                    <path d="M195.06 30.6517C195.091 30.6908 195.131 30.7397 195.177 30.8016C195.223 30.8635 195.272 30.932 195.321 31.0053C195.37 31.0787 195.42 31.1585 195.469 31.24C195.515 31.3164 195.557 31.3953 195.594 31.4763H195.29C195.252 31.4046 195.21 31.3313 195.165 31.2579C195.121 31.1846 195.075 31.1129 195.029 31.0461C194.983 30.9793 194.939 30.9157 194.894 30.857C194.85 30.7984 194.809 30.7478 194.771 30.7038H194.696H194.367V31.4731H194.09V29.5353C194.176 29.5159 194.263 29.5033 194.351 29.4978C194.448 29.4978 194.536 29.4881 194.615 29.4881C194.839 29.4739 195.061 29.5279 195.252 29.6429C195.325 29.6962 195.383 29.7668 195.422 29.8482C195.46 29.9296 195.478 30.0193 195.472 30.109C195.478 30.2291 195.443 30.3476 195.374 30.4463C195.294 30.5462 195.184 30.6182 195.06 30.6517ZM194.64 29.7293C194.522 29.7293 194.431 29.7293 194.369 29.7374V30.4789H194.566C194.652 30.4794 194.738 30.4745 194.824 30.4643C194.891 30.4586 194.957 30.4403 195.017 30.4105C195.068 30.3852 195.11 30.3462 195.139 30.298C195.167 30.2392 195.182 30.1749 195.182 30.1098C195.182 30.0447 195.167 29.9804 195.139 29.9216C195.111 29.8735 195.071 29.8335 195.022 29.8059C194.972 29.7762 194.916 29.7558 194.858 29.7456C194.786 29.7336 194.713 29.7282 194.64 29.7293Z" fill="#09263C"></path>
                  </svg>