
<svg width="24" height="24" viewBox="0 0 22 18" fill="none" xmlns="http://www.w3.org/2000/svg">
<path d="M22 2.08542C21.1748 2.444 20.3016 2.68024 19.4081 2.78667C20.3471 2.23685 21.0532 1.36335 21.3941 0.330008C20.5063 0.849112 19.5367 1.21334 18.5268 1.40709C18.1015 0.961375 17.59 0.606797 17.0234 0.364907C16.4568 0.123018 15.8469 -0.00113086 15.2309 7.76161e-06C12.7366 7.76161e-06 10.7181 1.98917 10.7181 4.44126C10.7164 4.78233 10.7554 5.12239 10.8345 5.45417C9.04598 5.37033 7.29462 4.91407 5.69249 4.11458C4.09037 3.3151 2.67276 2.19 1.53038 0.811258C1.1296 1.4869 0.917644 2.25778 0.916667 3.04334C0.916667 4.58334 1.72013 5.94459 2.93333 6.74209C2.21454 6.72503 1.51048 6.53479 0.880917 6.18751V6.24251C0.880917 8.39667 2.43925 10.1888 4.50175 10.5967C4.1139 10.7001 3.71423 10.7525 3.31283 10.7525C3.02802 10.753 2.74384 10.7254 2.46446 10.67C3.03783 12.4346 4.70663 13.7179 6.68342 13.7546C5.07713 14.9925 3.10503 15.6616 1.07708 15.6567C0.717117 15.6561 0.357484 15.6347 0 15.5925C2.06304 16.9099 4.46116 17.6067 6.90892 17.6C15.2213 17.6 19.7624 10.8304 19.7624 4.95917C19.7624 4.76667 19.7574 4.57417 19.7482 4.38626C20.6296 3.75928 21.3922 2.98014 22 2.08542Z" fill="#008ECF"/>
</svg>
